<svg width="25" height="25" viewBox="0 0 25 25" fill="none" xmlns="http://www.w3.org/2000/svg">
<path d="M2.9478 17.1757C4.6797 18.9095 6.98606 19.9504 9.43237 20.1022C11.8787 20.2539 14.2961 19.5061 16.2291 17.9997L22.8804 24.649C23.1163 24.8768 23.4322 25.0028 23.7602 25C24.0881 24.9971 24.4018 24.8656 24.6337 24.6338C24.8656 24.402 24.9971 24.0884 25 23.7605C25.0028 23.4327 24.8767 23.1168 24.6489 22.881L17.9976 16.2317C19.5714 14.2126 20.3154 11.6694 20.078 9.12067C19.8406 6.572 18.6396 4.20985 16.72 2.51596C14.8004 0.822081 12.3067 -0.0759427 9.7475 0.00503678C7.18833 0.0860163 4.75644 1.1399 2.9478 2.95176C2.01326 3.88554 1.27192 4.99426 0.766127 6.21455C0.260334 7.43485 0 8.74282 0 10.0637C0 11.3846 0.260334 12.6926 0.766127 13.9129C1.27192 15.1332 2.01326 16.2419 2.9478 17.1757ZM4.71631 4.72225C5.95273 3.48621 7.57959 2.71699 9.31971 2.54564C11.0598 2.37429 12.8056 2.8114 14.2594 3.78251C15.7133 4.75363 16.7854 6.19865 17.2931 7.87139C17.8008 9.54412 17.7126 11.3411 17.0435 12.9561C16.3745 14.5711 15.166 15.9043 13.624 16.7284C12.082 17.5526 10.3019 17.8167 8.58691 17.4759C6.87193 17.1351 5.32821 16.2103 4.21877 14.8592C3.10933 13.5081 2.50281 11.8143 2.50254 10.0662C2.49911 9.07292 2.69303 8.08882 3.07305 7.17103C3.45307 6.25323 4.01163 5.42003 4.71631 4.71975V4.72225Z" fill="#767676"/>
</svg>
